HIERARCHY
ROOT Hips
{
	OFFSET 0.000000 0.000000 0.000000
	CHANNELS 6 Xposition Yposition Zposition Zrotation Yrotation Xrotation 
	JOINT LHipJoint
	{
		OFFSET 0.000000 0.000000 0.000000
		CHANNELS 3 Zrotation Yrotation Xrotation
		JOINT LeftUpLeg
		{
			OFFSET 1.363060 -1.794630 0.839290
			CHANNELS 3 Zrotation Yrotation Xrotation
			JOINT LeftLeg
			{
				OFFSET 2.448110 -6.726130 0.000000
				CHANNELS 3 Zrotation Yrotation Xrotation
				JOINT LeftFoot
				{
					OFFSET 2.562200 -7.039590 0.000000
					CHANNELS 3 Zrotation Yrotation Xrotation
					JOINT LeftToeBase
					{
						OFFSET 0.157640 -0.433110 2.322550
						CHANNELS 3 Zrotation Yrotation Xrotation
						End Site
						{
							OFFSET 0.000000 0.000000 0.000000
						}
					}
				}
			}
		}
	}
	JOINT RHipJoint
	{
		OFFSET 0.000000 0.000000 0.000000
		CHANNELS 3 Zrotation Yrotation Xrotation
		JOINT RightUpLeg
		{
			OFFSET -1.305520 -1.794630 0.839290
			CHANNELS 3 Zrotation Yrotation Xrotation
			JOINT RightLeg
			{
				OFFSET -2.542530 -6.985550 0.000000
				CHANNELS 3 Zrotation Yrotation Xrotation
				JOINT RightFoot
				{
					OFFSET -2.568260 -7.056230 0.000000
					CHANNELS 3 Zrotation Yrotation Xrotation
					JOINT RightToeBase
					{
						OFFSET -0.164730 -0.452590 2.363150
						CHANNELS 3 Zrotation Yrotation Xrotation
						End Site
						{
							OFFSET 0.000000 0.000000 0.000000
						}
					}
				}
			}
		}
	}
	JOINT LowerBack
	{
		OFFSET 0.000000 0.000000 0.000000
		CHANNELS 3 Zrotation Yrotation Xrotation
		JOINT Spine
		{
			OFFSET 0.028270 2.035590 -0.193380
			CHANNELS 3 Zrotation Yrotation Xrotation
			JOINT Spine1
			{
				OFFSET 0.056720 2.048850 -0.042750
				CHANNELS 3 Zrotation Yrotation Xrotation
				JOINT Neck
				{
					OFFSET 0.000000 0.000000 0.000000
					CHANNELS 3 Zrotation Yrotation Xrotation
					JOINT Neck1
					{
						OFFSET -0.054170 1.746240 0.172020
						CHANNELS 3 Zrotation Yrotation Xrotation
						JOINT Head
						{
							OFFSET 0.104070 1.761360 -0.123970
							CHANNELS 3 Zrotation Yrotation Xrotation
							End Site
							{
								OFFSET 0.000000 0.000000 0.000000
							}
						}
					}
				}
				JOINT LeftShoulder
				{
					OFFSET 0.000000 0.000000 0.000000
					CHANNELS 3 Zrotation Yrotation Xrotation
					JOINT LeftArm
					{
						OFFSET 3.362410 1.200890 -0.311210
						CHANNELS 3 Zrotation Yrotation Xrotation
						JOINT LeftForeArm
						{
							OFFSET 4.983000 -0.000000 -0.000000
							CHANNELS 3 Zrotation Yrotation Xrotation
							JOINT LeftHand
							{
								OFFSET 3.483560 -0.000000 -0.000000
								CHANNELS 3 Zrotation Yrotation Xrotation
								JOINT LeftFingerBase
								{
									OFFSET 0.000000 0.000000 0.000000
									CHANNELS 3 Zrotation Yrotation Xrotation
									JOINT LeftHandIndex1
									{
										OFFSET 0.715260 -0.000000 -0.000000
										CHANNELS 3 Zrotation Yrotation Xrotation
										End Site
										{
											OFFSET 0.000000 0.000000 0.000000
										}
									}
								}
								JOINT LThumb
								{
									OFFSET 0.000000 0.000000 0.000000
									CHANNELS 3 Zrotation Yrotation Xrotation
									End Site
									{
										OFFSET 0.000000 0.000000 0.000000
									}
								}
							}
						}
					}
				}
				JOINT RightShoulder
				{
					OFFSET 0.000000 0.000000 0.000000
					CHANNELS 3 Zrotation Yrotation Xrotation
					JOINT RightArm
					{
						OFFSET -3.136600 1.374050 -0.404650
						CHANNELS 3 Zrotation Yrotation Xrotation
						JOINT RightForeArm
						{
							OFFSET -5.241900 -0.000000 -0.000000
							CHANNELS 3 Zrotation Yrotation Xrotation
							JOINT RightHand
							{
								OFFSET -3.444170 -0.000000 -0.000000
								CHANNELS 3 Zrotation Yrotation Xrotation
								JOINT RightFingerBase
								{
									OFFSET 0.000000 0.000000 0.000000
									CHANNELS 3 Zrotation Yrotation Xrotation
									JOINT RightHandIndex1
									{
										OFFSET -0.622530 -0.000000 -0.000000
										CHANNELS 3 Zrotation Yrotation Xrotation
										End Site
										{
											OFFSET 0.000000 0.000000 0.000000
										}
									}
								}
								JOINT RThumb
								{
									OFFSET 0.000000 0.000000 0.000000
									CHANNELS 3 Zrotation Yrotation Xrotation
									End Site
									{
										OFFSET 0.000000 0.000000 0.000000
									}
								}
							}
						}
					}
				}
			}
		}
	}
}
MOTION
Frames: 4
Frame Time: 0.008333
0.585900 17.922278 -3.501655 -2.241671 0.985347 4.247713 -2.499675 -0.105904 1.328794 -12.254388 0.253957 -0.540026 -0.638272 3.052886 8.667974 -0.008894 1.511562 -3.334418 2.293900 -9.453100 -27.223300 1.607878 1.689194 -1.017559 19.387946 -1.682206 -2.116420 -0.885330 -6.033633 14.378114 0.763782 -8.184601 -9.163110 -0.346500 -3.782000 10.464300 -2.132324 -2.417780 3.759235 1.001357 -3.113061 -1.393028 3.847746 -1.994696 -1.283689 -11.065107 -9.017091 0.975743 0.308230 -11.891604 15.507127 -0.141400 -6.228700 5.942500 2.867978 4.671298 -0.511647 -96.803462 16.135195 0.669180 12.006019 -29.408251 -3.032467 -0.684085 0.032968 48.740562 5.296341 -38.363394 -3.551200 -7.125000 0.000000 0.000000 -14.935900 -6.867700 17.176200 -1.791744 -5.221856 -0.577374 93.229535 -9.373794 16.859475 -9.175092 26.881508 -1.733575 0.591932 -2.979805 -8.101840 10.834997 -42.688062 -6.870300 7.125000 0.000000 0.000000 54.117400 -61.255400 -25.445400 
0.578928 17.919390 -3.499962 -1.695700 1.039047 4.139284 -2.516742 -0.118821 1.326793 -12.832382 0.208071 -0.446962 -0.637149 3.076126 8.734826 0.020105 1.348492 -3.492682 2.831300 -10.416800 -30.337400 1.615694 1.714105 -1.024451 18.736845 -1.656302 -1.925840 -0.874469 -6.031308 14.346957 0.789249 -8.366645 -9.186879 -0.320700 -3.640200 10.066600 -2.872920 -2.456946 3.912033 0.939118 -3.195649 -1.453666 4.198808 -2.031119 -1.420024 -11.395692 -9.164504 0.925282 0.653388 -12.095316 15.418545 -0.007700 -6.324900 5.967900 2.835246 4.708392 -0.517880 -96.798532 16.156593 5.615219 13.137248 -30.842006 -3.448787 -0.598890 0.266249 30.383391 -2.359148 -27.917947 0.797000 -7.125000 0.000000 0.000000 -18.779800 3.335800 18.706400 -1.781182 -5.239104 -0.584368 92.691399 -9.055434 15.876758 -8.903524 26.450905 -1.649355 0.618445 -2.954232 -8.198432 11.658694 -42.330318 -7.339500 7.125000 0.000000 0.000000 54.353300 -60.834100 -25.054700 
0.570264 17.914510 -3.502452 -1.056720 1.069684 4.005838 -2.535698 -0.136370 1.320496 -13.519080 0.091397 -0.323024 -0.637757 3.104907 8.815984 0.023988 1.325406 -3.576221 2.974300 -10.653300 -31.119400 1.625951 1.737650 -1.029521 17.997719 -1.494936 -1.679856 -0.863692 -6.040024 14.343892 0.821924 -8.605723 -9.301446 -0.328600 -3.684300 10.190000 -3.697878 -2.472264 4.184777 0.815824 -3.262289 -1.516219 4.511478 -2.051587 -1.611121 -11.565857 -8.978984 1.751520 1.357703 -12.064112 14.286732 0.281300 -6.283700 5.547300 2.744155 4.719724 -0.545597 -96.662916 16.331380 12.488903 16.102992 -34.284846 -4.703543 -0.558131 0.695175 0.274934 -5.581660 -8.135214 0.773500 -7.125000 0.000000 0.000000 -22.532800 21.271600 13.917300 -1.754028 -5.298230 -0.607255 92.134397 -8.655093 15.144159 -8.580071 25.928215 -1.534483 0.676593 -2.944234 -8.290359 13.138941 -42.342769 -8.270200 7.125000 0.000000 0.000000 55.598800 -60.478400 -25.376400 
0.563292 17.908335 -3.504742 -0.460744 1.057179 3.898031 -2.552273 -0.152964 1.314437 -14.151760 0.085114 -0.271226 -0.634818 3.138623 8.911092 0.030309 1.283584 -3.623145 2.943400 -10.602800 -30.951800 1.636847 1.760431 -1.034272 17.308613 -1.289453 -1.439100 -0.853052 -6.042309 14.327142 0.847084 -8.798179 -9.442906 -0.358400 -3.845900 10.643400 -4.448719 -2.479615 4.478503 0.691841 -3.321510 -1.600731 4.801801 -2.063873 -1.857117 -11.648104 -8.935246 2.193977 1.790915 -12.128600 13.505155 0.450300 -6.302000 5.279500 2.654141 4.738968 -0.566449 -96.551608 16.535315 16.233572 19.485977 -37.865666 -6.365931 -0.633626 1.034168 -24.440887 2.260509 7.652622 0.270700 -7.125000 0.000000 0.000000 -20.158600 35.763400 4.823800 -1.721875 -5.349212 -0.635033 91.433541 -8.288425 14.838907 -8.332813 25.495626 -1.432261 0.732730 -2.948691 -8.016203 14.995360 -42.905115 -9.551300 7.125000 0.000000 0.000000 57.857600 -60.363500 -26.681000 
